<mxfile host="app.diagrams.net" agent="Mozilla/5.0 (Macintosh; Intel Mac OS X 10_15_7) AppleWebKit/537.36 (KHTML, like Gecko) Chrome/129.0.0.0 Safari/537.36" version="24.7.17">
  <diagram name="第 1 页" id="YxP8mBLr30KTTa3bvzdV">
    <mxGraphModel dx="911" dy="496" grid="1" gridSize="10" guides="1" tooltips="1" connect="1" arrows="1" fold="1" page="1" pageScale="1" pageWidth="827" pageHeight="1169" math="0" shadow="0">
      <root>
        <mxCell id="0" />
        <mxCell id="1" parent="0" />
        <mxCell id="wTLxjkzDRVUS5lZ0tuO6-1" value="" style="rounded=1;whiteSpace=wrap;html=1;fillColor=#dae8fc;strokeColor=#6c8ebf;" parent="1" vertex="1">
          <mxGeometry x="30" y="80" width="700" height="290" as="geometry" />
        </mxCell>
        <mxCell id="wTLxjkzDRVUS5lZ0tuO6-2" value="网络" style="rounded=1;whiteSpace=wrap;html=1;fillColor=#647687;strokeColor=#314354;fontColor=#ffffff;" parent="1" vertex="1">
          <mxGeometry x="210" y="290" width="120" height="60" as="geometry" />
        </mxCell>
        <mxCell id="wTLxjkzDRVUS5lZ0tuO6-3" value="加载器" style="rounded=1;whiteSpace=wrap;html=1;fillColor=#647687;fontColor=#ffffff;strokeColor=#314354;" parent="1" vertex="1">
          <mxGeometry x="400" y="290" width="120" height="60" as="geometry" />
        </mxCell>
        <mxCell id="wTLxjkzDRVUS5lZ0tuO6-4" value="竞价模块" style="rounded=1;whiteSpace=wrap;html=1;fillColor=#647687;fontColor=#ffffff;strokeColor=#314354;" parent="1" vertex="1">
          <mxGeometry x="580" y="290" width="120" height="60" as="geometry" />
        </mxCell>
        <mxCell id="wTLxjkzDRVUS5lZ0tuO6-5" value="自渲染UI组件" style="rounded=1;whiteSpace=wrap;html=1;fillColor=#fa6800;fontColor=#000000;strokeColor=#C73500;" parent="1" vertex="1">
          <mxGeometry x="210" y="195" width="120" height="60" as="geometry" />
        </mxCell>
        <mxCell id="wTLxjkzDRVUS5lZ0tuO6-6" value="SDKUI组件" style="rounded=1;whiteSpace=wrap;html=1;fillColor=#fa6800;fontColor=#000000;strokeColor=#C73500;" parent="1" vertex="1">
          <mxGeometry x="400" y="195" width="120" height="60" as="geometry" />
        </mxCell>
        <mxCell id="wTLxjkzDRVUS5lZ0tuO6-7" value="UI交互组件" style="rounded=1;whiteSpace=wrap;html=1;fillColor=#fa6800;strokeColor=#C73500;fontColor=#000000;" parent="1" vertex="1">
          <mxGeometry x="580" y="195" width="120" height="60" as="geometry" />
        </mxCell>
        <mxCell id="wTLxjkzDRVUS5lZ0tuO6-8" value="监控组件" style="rounded=1;whiteSpace=wrap;html=1;fillColor=#1ba1e2;fontColor=#ffffff;strokeColor=#006EAF;" parent="1" vertex="1">
          <mxGeometry x="210" y="100" width="120" height="60" as="geometry" />
        </mxCell>
        <mxCell id="wTLxjkzDRVUS5lZ0tuO6-9" value="埋点系统" style="rounded=1;whiteSpace=wrap;html=1;fillColor=#1ba1e2;fontColor=#ffffff;strokeColor=#006EAF;" parent="1" vertex="1">
          <mxGeometry x="400" y="100" width="120" height="60" as="geometry" />
        </mxCell>
        <mxCell id="wTLxjkzDRVUS5lZ0tuO6-10" value="激励视频广告技术主要结构" style="rounded=0;whiteSpace=wrap;html=1;textDirection=vertical-lr;fontStyle=1" parent="1" vertex="1">
          <mxGeometry x="60" y="100" width="30" height="250" as="geometry" />
        </mxCell>
        <mxCell id="wTLxjkzDRVUS5lZ0tuO6-11" value="数据" style="text;html=1;align=center;verticalAlign=middle;whiteSpace=wrap;rounded=0;fontSize=17;fontStyle=5" parent="1" vertex="1">
          <mxGeometry x="120" y="305" width="60" height="30" as="geometry" />
        </mxCell>
        <mxCell id="wTLxjkzDRVUS5lZ0tuO6-12" value="UI" style="text;html=1;align=center;verticalAlign=middle;whiteSpace=wrap;rounded=0;fontSize=17;fontStyle=5" parent="1" vertex="1">
          <mxGeometry x="120" y="210" width="60" height="30" as="geometry" />
        </mxCell>
        <mxCell id="wTLxjkzDRVUS5lZ0tuO6-13" value="监控" style="text;html=1;align=center;verticalAlign=middle;whiteSpace=wrap;rounded=0;fontSize=17;fontStyle=5" parent="1" vertex="1">
          <mxGeometry x="120" y="115" width="60" height="30" as="geometry" />
        </mxCell>
        <mxCell id="wTLxjkzDRVUS5lZ0tuO6-14" value="" style="endArrow=none;dashed=1;html=1;rounded=0;exitX=0.129;exitY=0.653;exitDx=0;exitDy=0;exitPerimeter=0;" parent="1" source="wTLxjkzDRVUS5lZ0tuO6-1" edge="1">
          <mxGeometry width="50" height="50" relative="1" as="geometry">
            <mxPoint x="110.09999999999991" y="304.95000000000005" as="sourcePoint" />
            <mxPoint x="710" y="269.4594594594595" as="targetPoint" />
          </mxGeometry>
        </mxCell>
        <mxCell id="wTLxjkzDRVUS5lZ0tuO6-15" value="" style="endArrow=none;dashed=1;html=1;rounded=0;exitX=0.129;exitY=0.653;exitDx=0;exitDy=0;exitPerimeter=0;" parent="1" edge="1">
          <mxGeometry width="50" height="50" relative="1" as="geometry">
            <mxPoint x="120" y="180" as="sourcePoint" />
            <mxPoint x="710" y="180.45945945945948" as="targetPoint" />
          </mxGeometry>
        </mxCell>
      </root>
    </mxGraphModel>
  </diagram>
</mxfile>
